<!-- public/icons/clip.svg -->
<svg xmlns="http://www.w3.org/2000/svg" fill="white" width="24" height="24" viewBox="0 0 24 24">
  <path d="M17.657 6.343a8 8 0 1 1-11.314 11.314L5.636 17.95a6 6 0 1 0 8.485-8.485l-4.95 4.95a2 2 0 1 0 2.828 2.828l3.536-3.536 1.414 1.414-3.536 3.536a4 4 0 0 1-5.657-5.657l4.95-4.95a6 6 0 1 1 8.485 8.485l-4.95 4.95a8 8 0 0 1-11.314-11.314l1.414-1.414a10 10 0 1 0 14.142 14.142l4.95-4.95a12 12 0 0 0-16.97-16.97l-4.95 4.95a14 14 0 0 0 19.799 19.799l4.95-4.95a16 16 0 0 0-22.627-22.627l-4.95 4.95a18 18 0 0 0 25.456 25.456l4.95-4.95" />
</svg>
